<svg xmlns="http://www.w3.org/2000/svg" xmlns:xlink="http://www.w3.org/1999/xlink" viewBox="0 0 308.29 586.97"><defs><style>.cls-1{fill:#ddd;}.cls-2{fill:#f3f3f3;}.cls-3{fill:#fbfbfb;}.cls-4{fill:#fefefe;}.cls-5{fill:url(#名称未設定グラデーション_2);}.cls-6{fill:#f1f1f1;}.cls-7{fill:#e0e0e0;}.cls-8{fill:#dadada;}.cls-9{fill:#f6f6f6;}.cls-10,.cls-16,.cls-17,.cls-18,.cls-19,.cls-20,.cls-21{fill:none;}.cls-10,.cls-16,.cls-17,.cls-20{stroke:#d1d1d1;}.cls-10,.cls-16,.cls-19,.cls-21{stroke-linecap:round;stroke-linejoin:round;}.cls-10{stroke-width:2px;}.cls-11{fill:#d8d8d8;}.cls-12{fill:#d3d3d3;}.cls-13{fill:#d7d7d7;}.cls-14{fill:#fff;}.cls-15{fill:#d1d1d1;}.cls-17,.cls-18,.cls-20{stroke-miterlimit:10;}.cls-18,.cls-19{stroke:#cfcfcf;}.cls-20{stroke-width:0.75px;}.cls-21{stroke:#d0d0d0;stroke-width:0.5px;}</style><linearGradient id="名称未設定グラデーション_2" x1="154.04" y1="0.46" x2="154.04" y2="313.26" gradientUnits="userSpaceOnUse"><stop offset="0" stop-color="#e0e0e0"/><stop offset="1" stop-color="#ddd"/></linearGradient></defs><title>bg_admin_maki</title><g id="レイヤー_2" data-name="レイヤー 2"><g id="完成"><g id="まきちゃん"><g id="塗り"><path id="髪奥" class="cls-1" d="M109.88,309.37s.77,4.2-1,6.5a6.91,6.91,0,0,0,6.19-2.68L150.69,310s.81-6.88-1.32-6C149,304.14,109.88,309.37,109.88,309.37Z"/><g id="肌"><path id="首" class="cls-2" d="M113.91,309.17c.66-.36,26.55-3.18,26.55-3.18a6.69,6.69,0,0,0-.29,3l0,0c-.25.55-23.83,12.53-24.46,12.23C116.08,319.52,114,309.93,113.91,309.17Z"/><path id="肌-2" data-name="肌" class="cls-3" d="M194.33,139.06c1.29,1.66-5.57,57.6-5.66,59.29a180.62,180.62,0,0,1-2.52,22.48c-.44,2.45-.92,4.9-1.37,7.36,0,1.19.83,2.47.13,3.2-7.14,7.56-14.09,14.8-21.16,22.42-5,5.33-10.1,11-15,16.41-3,3.29-6.86,6.72-9.77,10.09-1.73,2-2.39,1.4-.27,3,3.56,3.09,6.88,6.45,10.4,9.59,1.67,1.5,1.63,1.56,2.65-.36a25.32,25.32,0,0,1,5-6.81,12.62,12.62,0,0,1,10-3.55,7.89,7.89,0,0,1,6,4c2.1,3.26,2.42,7,2.72,10.69a18.51,18.51,0,0,0,.13,3c.83.05,1.19-1.23,2.11-.62-1.33,1.1-1.46,2.5-1.29,4.12a12.72,12.72,0,0,1-1.7,7.89c-1.14,3-3.48,5.3-5,8.06a6.24,6.24,0,0,0-.83,3.51c0,6.46-.09,12.91.05,19.36.06,3.16.32,6.32.3,9.49a29.38,29.38,0,0,1-1.67,9.49c-1.6,4.55-7.3,8.39-12.12,8.24a3.52,3.52,0,0,1-1.59-.45,32.26,32.26,0,0,1-7.43-5.33,8.88,8.88,0,0,1-2.46-7.47c.55-6.31,2.67-12.26,4.09-18.36,1.78-7.64,4.27-13.13,3.9-21.18a45.76,45.76,0,0,0-1.63-8c-.56-2.23-.17-4.59-1.25-4.41-8.19,1.38-40.87,5.85-50.25,5.35-1,.24-1.93-.37-3.23-1-8.23-3.74-15.43-8.26-23.08-13.09-4.2-2.64-7.6-4.75-11.16-8.27,0,0-2.89-2.57-3.47-3-1.73-1.81-3-2.75-4.31-4.89-2.55-4.1-1-8.34.31-12.52a43.2,43.2,0,0,0,1.56-9.35c.78-8.89.28-17.78-.32-26.67-.67-10.15-2.69-22.76-4.3-32.79-.82-5.12,6.53-71.68,7.67-76.34Z"/><path id="手" class="cls-3" d="M121.56,453.18c-.39,4.81-5.39,6-9.21,5.5a20.54,20.54,0,0,1-12.52-5.75,31.77,31.77,0,0,0-.67-4c-1.46-.83-2.75-.56-4-2.37-1.06-1.53-1.15-3.94-1.41-5.76a63.51,63.51,0,0,1,7.17,2.68c1.48.65,2-.67,2.8-1.59,2.19-2.48,3.4-2.59,6.4-1.74,1.64.46,3.29.88,4.94,1.31a9.87,9.87,0,0,1,5.4,3.67,6.56,6.56,0,0,1,1.3,3.35Z"/><path id="肌_" data-name="肌２" class="cls-3" d="M245.33,248c-4,15.79-7.35,17.43-16.27,22a40.1,40.1,0,0,1-8.64,2.77,18.22,18.22,0,0,1-5.94,0,15.21,15.21,0,0,1-1.91-.54,2.26,2.26,0,0,0-2.29.51C203,282.54,194.51,290,183.5,295.09c-.3.13-3.5,1.17-3.81,1.27.76-.94,3.14-3.47,4-4.35,6-6.41,12.17-12.74,18.14-19.22,4.09-4.44,8.12-8.93,12.3-13.28.73-.75,1.33-1.62,2-2.44,1.92-1.77,1.91-1.75,0-3.66-.67-.66-1.48-1.13-2.12-1.81-.42-.45-1.12-.78-.89-1.6,1.86-1.53,3.05-3.61,4.46-5.5,1.86-2.47,3.43-3.49,5-6.14l2.77-4.66c1.45-3.37,3.53-6,4.45-9.56.27-1.06.8-3.65,1.67-3.47C231.42,220.67,246.33,220.67,245.33,248Z"/><path id="耳" class="cls-2" d="M226.24,231.73c2.12-1.35,3.12-1.32,5.57-.81,1.1.23,2.2,1,2.19,2.14a3,3,0,0,1-1.63,3,5.2,5.2,0,0,1-4.45-.42c-2.42-1.25-1.47-.71-3.82.18Z"/><path id="鼻" class="cls-4" d="M86.71,263.73a3.42,3.42,0,0,1,3.62,3c0,1.66-1.58,3.06-3.6,3.12s-3.88-1.32-3.89-3.07S84.49,263.76,86.71,263.73Z"/></g><g id="髪"><path id="髪-2" data-name="髪" class="cls-5" d="M172,166.88q2.86,14,5.93,27.91c.33,1.47,1.71,4.09,1.88,5.58.19,1.65-1.29.85-2.82.22-3.18-1.31-6.37-2.64-9.43-4.24-9.91-5.15-20.62-17.36-24.19-22-3.12-3.07-10.81-20.82-10.81-20.82.48,8,1,14.93.5,22.94-.5,7.36,0,12.43-2.38,19.44-.12.37-.64,3.93-1.62,5.28-.6,1.46-2.35.3-3.82-.38a55.69,55.69,0,0,1-10.67-6.51,51.64,51.64,0,0,1-11.9-12.33c2.32,5.45,4.79,10.82,7.6,16,.24.45,1.18,1.29,1.11,1.81-.08.29-2-.6-2.26-.52-.67.11-4.25-2.46-4.75-2.81a110.76,110.76,0,0,1-13.57-10.6c-10.28-9.66-14.13-19-16.13-32.94a93.86,93.86,0,0,1-1-11.46,83.72,83.72,0,0,1,.61-9.91c-1.66,3.1-3.9,6.25-5.27,9.22C64.35,151,59.93,160.8,56.46,171.56c-2.5,7.73-3.53,13.54-5.19,21.5-.27,1.27-1,5.46-.75,6.75.73,4,1.78,7.68,2.37,11.69.72,4.9,1.22,9.82,1.55,14.76.26,4,.67,8,.82,12,.17,4.27,1,6.16.77,10.44a145.1,145.1,0,0,1-1.5,14.84c-.45,2.58-1.16,5.1-1.84,7.62-1,3.69.19,6.79,2.07,9.79a12.09,12.09,0,0,0,2.94,3.15,32.08,32.08,0,0,0,.91,11c-.57.37-1.16-.17-1.68-.45-9-4.93-13.62-12.71-14.81-22.73-.11-.94-.2-1.88-.3-2.82,0-.16-.08-.32-.16-.64A22.77,22.77,0,0,1,34,271.57c-4.5.67-8.75.16-12.53-2.63-1.25-.92-1.28-.7.15-1.26,2.88-1.11,7.25-3,9.5-5.12,4.55-4.27,4.64-8.7,6-14.63.07-.3,0-4.71,0-4.77.18-6.48-1.09-8.43-4.63-13.42a63.37,63.37,0,0,1-7.94-21.5c-.27-1.41-.65-4-.94-5.37,0-.09-1-.61-1.18-.81-1.38,2.5-2,7-3,9.57A94.52,94.52,0,0,0,13,236.21c-.08.72-.25.61-1,.78s-2.21-2.37-2.69-2.93C3.79,227.61,1.72,222.29.5,213.87-1.15,202.5,1.63,192,5.39,181.37A160,160,0,0,1,23,146.3c1.36-2.05,1.65-4.46,2.37-6.72a165.77,165.77,0,0,1,10.22-25.09A133.66,133.66,0,0,1,54.66,86.54C63.19,77,74.28,69.21,85.27,62.68a146,146,0,0,1,27.5-12.5c2.31-.78,1.62-.54,1.31-2.87-1-7.59-2.56-15.54-.81-23.08,1.57-6.81,4.79-12.69,10.7-16.67a45.44,45.44,0,0,1,16.49-6.32,48.42,48.42,0,0,1,18,.13c8.69,1.62,15.4,7,19.87,14.44.67,1.11,1.87,2,1.25,3.54-1.81-1.09-3.12-2-4.75-2.92a42.61,42.61,0,0,0-24.44-5.87c-8.56.66-14,2.55-20.12,8.81a41.77,41.77,0,0,0-10,18.76c-.49,2.33-1.18,5.76-1.54,8.11-.28,1.77-.06,1.78,1.68,1.19,10.7-3.62,22.19-6.44,33.5-6.86a127.21,127.21,0,0,1,38.39,4.67,130.54,130.54,0,0,1,26,9.81A136,136,0,0,1,235.6,65.52a56.48,56.48,0,0,0,8.48,5.22c6.28,3,12.66,4.66,19.37,6.49,9.06,2.47,17.76,2.54,27.54,1.54,1.47-.3,2.91-.73,4.34-1.17.54-.17,1.45-.77,1.81-.45s-.15,2-.31,2.41c-4.4,10.64-10.44,13.68-22.31,16a39.3,39.3,0,0,0-5.63.93c1.78,2.49,5.49,6.22,7.15,8.66,11.2,16.37,18.63,34,21.69,53.64.79,5.06,2.79,9.18,4.41,13.87a116.93,116.93,0,0,1,5.32,25.47c1.43,13.17.52,26.22-4.94,38.43a80.64,80.64,0,0,1-12.06,19.75c-.47.54.18-.14-.63-.5-1-.45-.08-4.13.06-4.82,1.21-11.75,1.65-18,1.38-28.25,0-.26-.06-2.83-.13-3.12-.62.15-1.5,5-1.62,5.37a142.16,142.16,0,0,1-18.08,33c-3.41,4.51-7.32,9.33-11.17,13.47-9.5,10.23-9.71,17.81-8.56,33.63.19.67-.09,2.79.23,3.73a28.84,28.84,0,0,1-8.57-3.93c-5.94-3.68-8.3-9.54-9.29-16.55-.07-.52,0-2.54-.5-2.75s-2.21,2.45-2.55,2.77a62.56,62.56,0,0,1-22.65,13.93c-1.83.68-3,2.19-4.5,3.31-4.1,3.12-7.07,5.36-11.9,7.11a14,14,0,0,1-2.4.56c-.82.09-.63-.2-.19-.93a14.15,14.15,0,0,0,1.61-4.39c.12-.46,1.58-3.64,1-4.11s-3,2.09-3.46,2.33a78.31,78.31,0,0,1-9.9,4.33,15.76,15.76,0,0,1-4.61,1.34c-.09-.21.91-1.42,1-1.63a14.5,14.5,0,0,0,1.5-7.62c0-1.16-.78-2,0-2.76a20.85,20.85,0,0,1,5.8-4.41,77.53,77.53,0,0,0,23-16,71.56,71.56,0,0,0,4.67-5.73c.9-1.15,1.65-1.81,4.6-1.19a13.88,13.88,0,0,0,5.56-.1c3.57-.85,8.62-1.48,11.84-3.38a26.26,26.26,0,0,0,13.33-21,46,46,0,0,0-2.08-17.83,16.88,16.88,0,0,0-11.83-9.47c-1.25-.31-1.55,2.88-1.84,3.92a54,54,0,0,1-3.33,8.22c-.93,1.62-2.69,4-3.72,5.55-2.33,4.23-4.79,6.71-7.74,10.52a3,3,0,0,1-1.66,1.3c-1.74-.61-2.88-2-4.13-3.21-6.82-6.49-13.91-12.69-20.64-19.27-1-1-.69-1.17-1.65-.08-.41.46-2.63,4.6-3.57,3.77-.17-.74.73-4.44.87-5.14,3-9.94,3.07-22.28,4.73-30.88-1.69-2.24-2.31-3.73-5.28-8-3.54-5.1-4.45-7.72-6.64-13.49-2.91-8.62-4.87-15.75-7.27-24Z"/><g id="髪ハイライト"><ellipse class="cls-6" cx="253.24" cy="126.34" rx="27.73" ry="39.31" transform="matrix(0.96, -0.28, 0.28, 0.96, -25.14, 75.35)"/><ellipse class="cls-6" cx="217.15" cy="139.28" rx="13.97" ry="16.98" transform="translate(-30.15 65.83) rotate(-16.13)"/><ellipse class="cls-6" cx="103.62" cy="137.71" rx="7.89" ry="13.04" transform="translate(-10.52 8.59) rotate(-4.52)"/><ellipse class="cls-6" cx="120.47" cy="137.71" rx="3.98" ry="6.58" transform="translate(-10.47 9.92) rotate(-4.52)"/><ellipse class="cls-6" cx="49.41" cy="126.05" rx="11.05" ry="6.89" transform="translate(-85.92 129.7) rotate(-70.14)"/></g></g><g id="ズボン"><path id="ズボン前" class="cls-7" d="M127.54,445.53a99.9,99.9,0,0,1-6-15.19,3.1,3.1,0,0,1-.15-1.48,2.27,2.27,0,0,1,1.51-.93,208.43,208.43,0,0,0,23.34-9.79,93.66,93.66,0,0,1,28-7.9c5.06-.69,10.07-1.7,15.19-1.93,1.12-.06,1,.18,2,1.08a46.83,46.83,0,0,1,4.09,5.17c3.31,5.43,9.18,13.35,9.75,24.3a42.49,42.49,0,0,1-.17,8.95c-.68,2.19-.34,5.81-2.27,9.58-2.28,4.44-5.35,7.86-8.92,11.83-8.49,9.47-15.52,16.83-23.08,27.09-.56.76-3.44,4.35-4.15,5a34.44,34.44,0,0,0-6.16,7.46c-4.43,5.46-9.31,10.63-13.67,16.37a2.5,2.5,0,0,0-.43,1.83c.15,1.63,1.18,1.67,0,2.9-1,1-2.86,1.14-3.38,2.42-3,7.53-7.42,14.24-12.3,20.67s-9.3,12.86-14.74,18.77c-3,3.19-6.19,6.18-9.14,9.35a4,4,0,0,1-3,1.12c-8-1.93-14.94-6.71-21.28-12-1.32-1.09,1.35-3.18,2.18-4.43,3.89-5.79,6-10.43,8.53-15.22a317.12,317.12,0,0,0,15.84-35.12c1.42-3.57,1.4-7.29,2.09-11.08.63-3.49,2.92-7.24,4.5-10.42,2.59-5.22,3.56-10.75,5-16.33,2.13-8.28,2.56-16.62,5.87-24.51a40.73,40.73,0,0,1,2.38-5.36Z"/><path id="ズボン影" class="cls-8" d="M128.75,447.43c-.1-.22-.77-.4-.87-.62a28.26,28.26,0,0,1,0-8.9c0-.27,0-.64.22-.78a23.06,23.06,0,0,1,7.71-3.92c.78-.24,1.43.4,1.1.82-2.87,3.65-6.38,7.89-7.79,12.31C128.93,447,129.38,447.44,128.75,447.43Z"/><path id="ズボン後" class="cls-8" d="M168.41,498.31c2.34-3.34,4.68-5.3,6.25-7.25,5.47-6.77,9.11-11.27,15-17.67,2.86-3.1,5-6.52,7.67-9.75A47.36,47.36,0,0,0,203.16,452c.83-2.73,1.92-4.16,2.19-6.82,0,2.39-.69,4.12-.9,7.34a33.89,33.89,0,0,1-.31,3.65,56,56,0,0,0,.75,10.05c1.54,12.64,3.53,24.08,5.19,36.7.19,1.47-.68,5.17,1.42,5.64.54.12,1.78,1.29,1.75,1.72-.16,2.19.33,2.24,1.69,3.64a203.7,203.7,0,0,1,23.7,29,101.69,101.69,0,0,1,5.88,10,2.35,2.35,0,0,1-.39,2.2c-3.42,5.42-7.18,10.57-12.35,14.48-.9.69-1.72,1.63-3,1.59-3.2-4.25-6.3-8.77-10.53-11.91-5.22-5.77-11.44-10.42-17.48-15.29C193.87,538.47,187,533,179.9,527.66c-1.75-1.3-1.58-4.72-2.32-6.6-2.91-7.45-4.67-12.92-9.42-20.84A2.59,2.59,0,0,1,168.41,498.31Z"/></g><g id="小物"><path id="カット袋" class="cls-2" d="M128.18,447.45a.86.86,0,0,1,.07,1,25.54,25.54,0,0,0-1.5,5c-1.86-.7-2.75-2.26-4.5-1.86-.92-.1,0-1.37,0-1.91-.09-.76-.64-1.91-.67-2.68-.09-2.62-2.54-3.26-4.67-4.29a29.76,29.76,0,0,0-9-2.5,4.35,4.35,0,0,0-4.2,1.66c-1.48,1.64-3.1,1.79-5.19.79-1.44-.69-3.25-1-4.56-2.1-5.08-1.79-10.19-3.37-15.27-5.16-13.2-4.63-24.89-8.82-38.11-13.4a1.88,1.88,0,0,1-1.37-2.63c1.94-5.61,3.79-10.39,5.75-16,2.28-6.55,4.71-13.2,7-19.75,4.26-12.21,7.48-22.91,11.75-35.12.83-2.38.29-3.24,2.75-2.38,10.21,3.58,19.41,6.54,29.62,10.13.45.16,2.94,1.5,3.43,1.12.79,8.59,3,14.89,6.65,22.58,3.13,6.64,5.42,12.23,6,20.06a136.53,136.53,0,0,0,5.45,28c.77,2.4,1.7,1.72,4.19,1.9,1.84,5.79,2.93,10.51,5.55,16Z"/><g id="スマホ"><path id="スマホ-2" data-name="スマホ" class="cls-4" d="M177,299.81c-.71,0-1,.57-1.45,1-.26.26-.38.77-.89.53s-.32-.68-.31-1a34.12,34.12,0,0,0-1-9.55,12.53,12.53,0,0,0-2.65-5.13c-3.1-3.64-8.56-3.11-12.49-.53-3.21,2.09-5.29,5.17-7,8.53-1.08,2.17,0,1.62-1.85-.09-3.55-3.34-6.79-6.49-10.37-9.81,0-1.38-.21-1.62.63-2.3,2.92-2.35,5.23-5.3,7.78-8s5.28-5.56,7.89-8.36c4.77-5.13,9.54-10.25,14.43-15.26,5.27-5.41,10.34-11,15.57-16.46,2.1-2.19,2.2-2.08,4.4-.12q6.78,6,13.58,12.06c4.17,3.67,8.23,7.46,12.46,11.06a1.53,1.53,0,0,1,.46.68,5.49,5.49,0,0,1-1.91,2.84c-3.65,3.72-7.14,7.59-10.66,11.43-6.88,7.52-14,14.81-20.85,22.38-.42.46-1,.7-1.41,1.15C179.51,296.14,178.41,298.11,177,299.81Z"/><path id="スマホ影" class="cls-9" d="M213.76,250.9a23.47,23.47,0,0,0,3.49,3.82c1,.87,1.21.61-1.16,2.35-4.27-3.38-8.19-7.14-12.25-10.76-5.17-4.61-10.36-9.22-15.51-13.85-.88-.79-1.36-.24-1.93.34-3.57,3.58-7,7.33-10.4,11-3.76,4-7,8.15-10.75,12.18-6.89,7.4-13.71,14.81-20.59,22.21-2,2.16-3.92,3.11-5.66,5.5-.34-.28-.65-.57-1-.83-1.2-.88-.58-1.52.41-2.58,5.21-5.54,9.55-10.29,14.69-15.88s10.51-11.53,15.65-17.12c5-5.43,10.05-10.47,15-15.92.59-.65,2.09-1.88,2.63-2.58.15-.08,1-1.14,1.11-1.25s.81-.64,2,.78q11.19,10.38,22.4,20.74C212.25,249.41,213.37,250.6,213.76,250.9Z"/></g></g><g id="罫線"><line class="cls-10" x1="101.71" y1="419.31" x2="116.2" y2="424.26"/><line class="cls-10" x1="65.72" y1="388.76" x2="106.06" y2="403.56"/><line class="cls-10" x1="60.4" y1="401.16" x2="101.71" y2="416.06"/><line class="cls-10" x1="93.96" y1="374.68" x2="87.08" y2="395.16"/><polyline class="cls-10" points="109.77 392.76 98.33 427.43 56.33 412.68 76.33 356.08 100.66 364.47"/><line class="cls-10" x1="72.76" y1="366.2" x2="105.06" y2="377.63"/><line class="cls-10" x1="72.16" y1="371.92" x2="108.96" y2="384.93"/><line class="cls-10" x1="69.75" y1="377.63" x2="109.58" y2="391.76"/><line class="cls-10" x1="67.25" y1="382.75" x2="107.41" y2="397.25"/></g><g id="Tシャツ"><path id="Tシャツ-2" data-name="Tシャツ" class="cls-11" d="M192.67,409.43c-3.88-.05-8.27-.38-12.1.24-5.66.92-10.93,2.38-16.54,3.59A77.1,77.1,0,0,0,148,419.05a269.12,269.12,0,0,1-26.4,10.8c-1.71.64-3.64-.82-4.37-2.75-1.32-3.49-1.37-7.41-2.19-11-1.59-7-2.5-13.8-3.46-20.9a45.36,45.36,0,0,0-4.5-13.91,110.77,110.77,0,0,1-6.38-16.78,32.85,32.85,0,0,1-1.15-7c0-.4-.25-3.21,0-3.54.83-6.25,3-9.87,6.32-15.17,3-4.74,4.58-6.09,7.17-14.16a5.83,5.83,0,0,1,2.33-2.34c4.12-2.29,7.08-4.78,11.23-7a146.52,146.52,0,0,1,13.62-6.2c1.84-.8,3.68-1.45,5.64-.26.61.37.77,1.76,1.34,1.39s2.59-1.46,3.24-1a27.2,27.2,0,0,1,1.54,8c.46,6.5-2.12,10.8-3.23,17.16-.94,5.37-2.31,10-3.32,15.35-.49,2.55-.49,4.66-.81,7.25a8.1,8.1,0,0,0,2,5.83c2.31,2.73,4.06,5.19,7.26,6.55,1.85.77,4-.08,5.87-.94,6.18-2.83,7.76-8.27,8.15-14.37.29-4.5-.18-9-.17-13.5l.06-18.35c0-1,0-1.93,1.19-2.23a154.38,154.38,0,0,1,4.46,15.84c.47,2.09,2.68,6.23,3.59,8.19,1.25,2.77-.28,1.16-1.8,3.89-.36.64-.21.79-.24,1.52-.26,7.71,1,15.29,1.7,22.92a6.64,6.64,0,0,0,1.83,3.62,2,2,0,0,1,.35,2.38c-.78,1.56-.39,2.92.55,4.35a219.38,219.38,0,0,1,12.17,20.17c.37.74,1.8,2.29,2.15,3.05C194.34,407.13,194.23,409,192.67,409.43Z"/><path id="Tシャツ影" class="cls-12" d="M122.43,393a1.92,1.92,0,0,1-1.65-.62c-2.6-2.66-5.34-5.18-7.71-8.05-.33-.4-.71-.78-.31-1.31s.73-.11,1.14.06c5.58,2.31,11.16,4.59,16.74,6.88.59.24,1.51.25,1.45,1.09-.56.58-1,.51-1.5.67A68.52,68.52,0,0,1,122.43,393Z"/></g><g id="足"><path id="足後ろ" class="cls-9" d="M229.39,571.49c6.79-4.18,10.72-10.21,14.81-16.84a2,2,0,0,0,.32-1.25,25,25,0,0,0,1.79,2.47c.74,1.26,0,2.94-.47,4.15-2,5.28-6,9-10,12.69a27.81,27.81,0,0,1-2.33,1.85c-1.53,1.14-2.45,1-3.5-.58C229.58,573.24,229.82,572.27,229.39,571.49Z"/><path id="足前" class="cls-4" d="M81.83,569.37c6.88,8.49,22.81,12.83,22.81,12.83l-4.56,4.27s-5.12-.78-13-4.66-9.36-8.88-9.36-8.88S81.05,568.5,81.83,569.37Z"/></g><g id="目"><path id="白目_左" class="cls-4" d="M135.24,251.93c-3.37.64-7.21-1.18-7.86-1.51a9.76,9.76,0,0,1-4.65-5.19c-2.15-5.22-2.49-10.67-2.15-16.17a51.37,51.37,0,0,1,1.39-8.33c.22-.93,2.71-3.37,3.39-4.16,3.15-3.62,5.48-4.67,9.7-6.79,3.15-1.58,7-2.62,10.43-1.85,7.12,1.6,12.77,5.69,15.88,12.13a22.1,22.1,0,0,1,.7,16.36c-1.73,4.34-5.84,7.37-9.07,10.69-.54.57-5.56,4.57-6.38,4.7Z"/><path id="白目_右" class="cls-4" d="M70.33,249.14c-1.46,0-4.56-3.89-5.1-4.74-3.2-5-5.34-10.45-4.71-16.49.58-5.58,1.71-11.12,5.89-15.35,4.48-4.53,12.21-3.56,16.06,1.53A26.78,26.78,0,0,1,88.19,229a30.54,30.54,0,0,1-2.36,12.71c-.61,1.54-3.58,6.31-6,6.72Z"/><path id="左目" class="cls-13" d="M156.08,230.27c-1.25-14.34-5.24-18.46-14.75-19.07-9-.57-16.25,10-16.25,22.43,0,7.13.94,13.74,4.7,17.84,7.22,1.42,11.31,1.39,16.8.34C152.25,248.39,156.8,238.56,156.08,230.27Z"/><path id="左目ハイライト" class="cls-8" d="M146.63,251.81c3.1-1.87,5.86-5.67,7.61-10.07-2.8-2.63-8.39-4.43-14.85-4.43-5.74,0-10.8,1.42-13.83,3.59.59,4.21,1.84,7.92,4.27,10.57C137.05,252.89,141.14,252.86,146.63,251.81Z"/><path id="右目" class="cls-13" d="M86.17,231.57c0,6.47-2,12.66-4.76,16.12a10.83,10.83,0,0,1-6.19,1.84c-4.93.25-5.76,0-7.29-2.29-2.59-3.51-3.65-9.46-3.65-15.67,0-10.48,4.9-19,10.94-19S86.17,221.09,86.17,231.57Z"/><path id="右目ハイライト" class="cls-8" d="M75.23,249.53a10.82,10.82,0,0,0,6.18-1.84,19.72,19.72,0,0,0,3.2-6.2c-1-3.33-5-5.81-9.79-5.81-4.48,0-8.26,2.19-9.58,5.21a17.5,17.5,0,0,0,2.69,6.35C69.46,249.49,70.29,249.78,75.23,249.53Z"/><ellipse id="ハイライト左" class="cls-14" cx="140.4" cy="230.06" rx="4.78" ry="8.29"/><ellipse id="ハイライト右" class="cls-4" cx="75.2" cy="230.43" rx="3.98" ry="7.75"/></g><path id="口" class="cls-6" d="M98.64,299.49c-4.93-.5-6.18-2.62-8.31-8-.75-1.32-2.19-7.12-1.62-9.37,6.43-2.5,17.25-1,21.62,1.6.38,1.15-.12,7.15-1.44,10.09C106.08,299.12,102.46,299.49,98.64,299.49Z"/></g><g id="線画"><path class="cls-15" d="M50.92,199.46A89.38,89.38,0,0,1,53,211.26q.81,5.93,1.51,11.88t1.15,11.92c.29,4,.52,8,.46,12a.52.52,0,0,1-.51.5.51.51,0,0,1-.49-.5c-.06-4-.44-7.92-.82-11.88s-.84-7.91-1.36-11.86-1-7.89-1.57-11.83a117.93,117.93,0,0,1-1.43-11.87.5.5,0,0,1,.48-.52A.52.52,0,0,1,50.92,199.46Z"/><path class="cls-15" d="M90.29,84.06q-3.67,7.55-6.71,15.35a151.89,151.89,0,0,0-5.1,15.92,97.55,97.55,0,0,0-3.23,33,62.15,62.15,0,0,0,11.09,30.89A66.08,66.08,0,0,0,112,199.91l-.62.73h0a50.78,50.78,0,0,1-3.24-5.62c-1-1.92-1.89-3.87-2.76-5.84-1.74-3.94-3.32-7.93-4.79-12l.94-.33a35.26,35.26,0,0,0,4.55,8.08,45.19,45.19,0,0,0,6.28,6.9c.57.54,1.2,1,1.79,1.51a21.25,21.25,0,0,0,1.86,1.42l1.9,1.36,2,1.21c1.31.86,2.75,1.49,4.12,2.22s2.88,1.23,4.31,1.85H128a1.58,1.58,0,0,0,.3-.35c.12-.2.24-.41.35-.64a12.82,12.82,0,0,0,.59-1.42,30.69,30.69,0,0,0,.9-3c.51-2,.9-4.11,1.23-6.2a118.11,118.11,0,0,0,1.16-12.62,202.58,202.58,0,0,0-.62-25.36,322.28,322.28,0,0,0-8.21-50.1.49.49,0,0,1,.37-.6.51.51,0,0,1,.6.37c2,8.25,3.8,16.56,5.25,24.94s2.56,16.81,3.24,25.29a203,203,0,0,1,.37,25.51q-.33,6.38-1.28,12.71c-.32,2.11-.71,4.21-1.22,6.29-.26,1-.55,2.07-.9,3.09-.18.51-.37,1-.6,1.53a8.16,8.16,0,0,1-.41.76,1.84,1.84,0,0,1-.8.76h0a.4.4,0,0,1-.32,0h0c-1.45-.64-2.95-1.2-4.38-1.89s-2.86-1.38-4.2-2.26l-2-1.24-1.94-1.38a22.16,22.16,0,0,1-1.9-1.45c-.6-.52-1.25-1-1.82-1.54a45.75,45.75,0,0,1-6.42-7.06,36.4,36.4,0,0,1-4.7-8.35.5.5,0,0,1,.29-.64.51.51,0,0,1,.65.28h0v0c1.46,4,3,8,4.77,11.91.86,1.95,1.75,3.89,2.73,5.79a53.53,53.53,0,0,0,3.17,5.51h0a.51.51,0,0,1-.15.7.54.54,0,0,1-.48,0A71.42,71.42,0,0,1,97,192.2a60.5,60.5,0,0,1-11.86-12.11,63.78,63.78,0,0,1-11.56-31.58c-1.09-11.31.4-22.7,3.3-33.58a145,145,0,0,1,5.37-16c2.12-5.21,4.54-10.3,7.1-15.29a.5.5,0,0,1,.68-.22.5.5,0,0,1,.22.66Z"/><path class="cls-15" d="M75.25,130.07a36.77,36.77,0,0,1-3.17,7.19l-1.79,3.48-1.71,3.53c-2.22,4.72-4.4,9.47-6.31,14.33a186.93,186.93,0,0,0-9.35,29.89,144.74,144.74,0,0,0-3.46,31.1,74.81,74.81,0,0,0,1.6,15.52,36.69,36.69,0,0,0,2.39,7.37,17.23,17.23,0,0,0,4.41,6.16h0l0,0a.5.5,0,0,1,0,.71.49.49,0,0,1-.47.14,37.07,37.07,0,0,1-14-6.4,43.93,43.93,0,0,1-10.35-11.4,61.43,61.43,0,0,1-6.52-13.93,89.39,89.39,0,0,1-3.54-15,127.19,127.19,0,0,1-.68-30.64,161.36,161.36,0,0,1,5.75-30.11.5.5,0,0,1,1,.28,160.45,160.45,0,0,0-5.71,29.92,125.69,125.69,0,0,0,.67,30.4,88.84,88.84,0,0,0,3.49,14.79,61.1,61.1,0,0,0,6.42,13.72A43,43,0,0,0,44,242.32a35.85,35.85,0,0,0,13.62,6.22l-.42.88h0a18.22,18.22,0,0,1-4.67-6.53,37.73,37.73,0,0,1-2.43-7.57,76.36,76.36,0,0,1-1.71-15.72,145.57,145.57,0,0,1,3.31-31.36c1.06-5.16,2.35-10.27,3.82-15.32s3.1-10.07,5-15,3.87-9.81,6.12-14.57l1.7-3.57,1.79-3.53a28.93,28.93,0,0,1,4.27-6.66.51.51,0,0,1,.88.46Z"/><path class="cls-16" d="M23.19,200.58s-10.23,25.19-10.86,37c-32.12-34,11.26-90.69,12.14-92.69,10.86-41.69,35.36-76.31,90-95.2-3-11.49-5.71-34.24,14.41-44.49,12.85-6.54,39.25-9.62,51.24,14.33C153.58,3.68,123.71,6.68,118.68,48.16c30-13,78.44-10.51,119.79,19.6,13.77,8.27,39.9,14.89,58.67,9.39-2.68,18.53-26,18.71-28.09,19.56,16.16,16.35,26.28,47.35,29.15,64.68,13.51,34.67,14.63,69.67-8.95,95.47,2.13-17.71,3.33-43.55-.92-66.24"/><path class="cls-16" d="M172.28,93.44s28.18,72.48,10.8,138.16"/><path class="cls-15" d="M132.91,150.16a6.52,6.52,0,0,1,.74,2.13l.54,2.17c.45,1.42,1,2.82,1.45,4.23s1.2,2.74,1.78,4.12a18.73,18.73,0,0,0,1,2l1.07,2a77,77,0,0,0,10.64,14.44A80.83,80.83,0,0,0,163.73,193a51.49,51.49,0,0,0,16.1,7.69l-.59.61h0c-1.18-4.75-2.2-9.52-3.21-14.3s-2-9.56-2.9-14.35q-2.82-14.37-5.41-28.77a.5.5,0,0,1,.4-.58.51.51,0,0,1,.58.38h0c1.09,4.42,2.32,8.83,3.63,13.2s2.74,8.7,4.29,13a136.3,136.3,0,0,0,5.2,12.61,52.83,52.83,0,0,0,7,11.51h0a.85.85,0,1,1-1.3,1.11h0a54.43,54.43,0,0,1-7.08-12c-1.92-4.19-3.59-8.48-5.09-12.81s-2.89-8.71-4.14-13.12-2.44-8.83-3.48-13.3h0l1-.2q2.61,14.4,5.41,28.76,1.41,7.17,2.9,14.33c1,4.77,2,9.54,3.2,14.26h0a.5.5,0,0,1-.36.6.49.49,0,0,1-.24,0A52.37,52.37,0,0,1,163.06,194a82.58,82.58,0,0,1-13.85-11.87,78.32,78.32,0,0,1-10.88-14.65l-1.1-2a19.63,19.63,0,0,1-1-2.05c-.61-1.4-1.31-2.76-1.84-4.2s-1-2.88-1.5-4.34l-.57-2.22a7,7,0,0,1-.36-2.27.52.52,0,0,1,.57-.47.51.51,0,0,1,.38.23Z"/><path class="cls-16" d="M189,72.9c47,43.16,66.91,133.07,24.48,177"/><path class="cls-15" d="M56.11,249a67.51,67.51,0,0,1-.08,7.39c-.17,2.46-.54,4.91-.92,7.33a.29.29,0,0,1,0,.09v0a36,36,0,0,0-1.79,8.48,13.05,13.05,0,0,0,2,8A15.61,15.61,0,0,0,58,283.63c1,1,2.15,2,3.25,3,2.24,1.91,4.56,3.72,6.94,5.46a157.46,157.46,0,0,0,14.88,9.56c2.56,1.46,5.17,2.85,7.81,4.15,1.32.65,2.66,1.27,4,1.84.68.29,1.35.56,2,.81a9.2,9.2,0,0,0,1.92.51h0a102.56,102.56,0,0,0,12.62-.3c4.22-.3,8.44-.69,12.65-1.14s8.42-.94,12.62-1.51,8.42-1.16,12.47-2.14h0a.5.5,0,0,1,.24,1c-4.19,1-8.38,1.65-12.58,2.28s-8.42,1.15-12.65,1.64-8.45.9-12.69,1.21a103,103,0,0,1-12.81.34h0a9.33,9.33,0,0,1-2.37-.59c-.71-.26-1.42-.54-2.11-.83-1.38-.58-2.73-1.21-4.07-1.86q-4-2-7.9-4.17a157.44,157.44,0,0,1-15-9.59c-2.42-1.75-4.78-3.58-7.05-5.52-1.13-1-2.25-2-3.33-3a17.77,17.77,0,0,1-3-3.53,14.21,14.21,0,0,1-1.84-4.29,16.12,16.12,0,0,1-.38-4.63,37.26,37.26,0,0,1,1.82-8.88l0,.11c.42-2.4.78-4.79,1-7.2s.38-4.82.51-7.26a.49.49,0,0,1,.52-.47A.51.51,0,0,1,56.11,249Z"/><path class="cls-16" d="M35.89,234.9c2.94,6.66.56,17.06-.75,21.15-2.23,5.92-7.48,10.2-14.45,12,11.64,9.27,21.52-.76,21.52-.76s-1.21,21.44,16.87,28C57.61,290.91,58,284.65,58,284.65"/><path class="cls-16" d="M291.1,218.68c-7.59,30.34-33,52.69-37.58,62.31-5.94,12-1.1,27.84-1.1,27.84s-18.46-5-18.75-23.23c-5.87,5.53-9.59,11.08-26,17.14"/><path class="cls-16" d="M219.71,283.31c-5.07,15-17.32,26.87-30.69,29.93,0-.18,3.23-6.75,3.23-12.56"/><path class="cls-16" d="M192,303.8s-4.77,4.65-17,7.57"/><path class="cls-16" d="M179.12,297c22.27-8.81,30.49-24.69,32.84-24.68,11.87,2.62,28.62-4.5,32-17.75,4-15.82-.38-24.22-3.81-28.73a14.75,14.75,0,0,0-9.09-5.21"/><path class="cls-16" d="M233.26,231.6s-3.59-1.58-6.51-.68"/><path class="cls-17" d="M114.1,309.17s2.11,9.15,1.54,12.74"/><path class="cls-16" d="M109.88,309.37c1,3.25-1.21,6.49-1.21,6.49s4.53.39,6.25-2.61"/><path class="cls-18" d="M147.16,310.14s-1.57-2.17-2.63-2.17c-9.18,1.4-28.21,12.82-30.43,15.4s-3.28,7.38-4.89,10.5c-3.75,5.12-8.36,12.31-9.38,18.56-1.46,9,2.18,18.87,8.56,31.56a54,54,0,0,1,3.69,15c.9,9.49,4.08,28.25,6.81,30.71,4.27,2.51,31.43-12.54,38.11-14.46,7.6-2.6,27.66-6.58,34.83-5.79,1.91.21,1.91-.8,1.91-2.38,0-3.91-13.15-21.7-15.23-25.66-.35-1.17.21-1.59.65-3.58-.24-1.89-1.72-2.46-2.39-3.69-.67-3.4-2.08-25.62-2.08-25.62"/><path class="cls-17" d="M140.26,306.43a4.88,4.88,0,0,0,.4,2.22"/><path class="cls-19" d="M150.16,309.17a20.52,20.52,0,0,0-14,11.67c-2.38,5.05-1.31,12.4-1.09,15.81s-1.29,12.91-1.21,18.52c3.5,2.05,10.42,0,10.42,0"/><path class="cls-19" d="M168.61,352.31c4.45-2.07,6.16-3.39,8.91-7.17-.83-2.6-3.14-5.36-4.27-10.37-1.61-9.59-4.45-15-4.45-15"/><polyline class="cls-16" points="150.73 294.81 137.01 281.89 187.67 226.92 218.14 255.43 174.33 302.09"/><path class="cls-17" d="M121.83,430s3.25,13.21,6.75,17.1"/><path class="cls-16" d="M191.83,409.43s10.47,12.34,11.88,22.76c1.83,8.93,1.83,15.49.42,27.74-.92,3.75,5.37,31.21,6.14,47.87a6,6,0,0,1,2.72,1.51c.4.56.29,1.62,0,3.37,12.47,11.13,32.95,37.33,33.72,45.81-1,6.48-11.44,16.82-15,17.11-1.15-.29-5.12-10.38-19.75-23-12.19-10.25-21.16-17.39-25.59-20.36-7.63-4.19-7.85-7.09-8.58-10.23l-2-5.64c-1.41-4.58-8.12-16.83-8.12-16.83"/><path class="cls-16" d="M245,553.4s-7.7,13.66-15.64,18.09"/><path class="cls-16" d="M136.93,434c-8.22,5.44-12.18,28.36-14.68,36.19-.93,2.91-3.93,20.56-7.17,24.89-4.33,7.53-4,14.13-5,17.61-6.14,18.69-16.32,37.59-24.51,51.75-3.47,6.45-7.86,7-7.86,8.63,0,4.73,20.12,14.66,22.69,13.23,21.75-18.77,40.5-46.27,42.67-54.86a14.5,14.5,0,0,0,3.95-2.86s-.2-1.39-.53-2.89c7.95-11.5,53.68-64.66,52.26-64.08"/><path class="cls-16" d="M81.83,569.81s11.7,10.62,23,12.39"/><line class="cls-16" x1="187.52" y1="231.39" x2="142.2" y2="280.63"/><circle class="cls-15" cx="187.67" cy="242.06" r="3.14"/><circle class="cls-15" cx="193.06" cy="246.89" r="1.79"/><polyline class="cls-16" points="99.51 357.43 64.96 345.56 38.71 421.18 101.71 443.68"/><line class="cls-20" x1="72.16" y1="348.03" x2="45.39" y2="423.45"/><path class="cls-21" d="M163.09,413.49c3,10,3.12,14.25,1.43,20.25,0,.08-1.76,3.86-1.8,3.94-8.23,17.88-37.25,80.9-35.46,77"/><path class="cls-21" d="M125.48,518.07c-1.56,3.4-27.62,52.82-34.44,58.52"/><path class="cls-16" d="M94,441.12s.2,7.4,5,7.4c3.34-.8,2.42-4.59,2.42-4.59"/><path class="cls-16" d="M99,448.89a11.59,11.59,0,0,0,1.38,4.32c2.45,3.06,9.89,6.43,17,5.31,4.41-1.71,5.13-6.57,4.17-11.71-1.38-4.17-8.92-7.5-15.09-6.54-2.52.53-4.7,3.7-4.7,3.7"/><path class="cls-16" d="M173.49,305.73c.26,0,2.77-10.24-.32-16.84-3.59-7.42-11-8.26-17.84-1.5-8,9.41-5.28,21.31-3.47,28.75a3,3,0,0,1,.08,1c-.45,5.5-7.34,34.65-7.64,38.61-.56,5.4,3.28,11.15,10.53,13.9,6.75,0,13.08-5.08,13.78-13.56.27-2.57-1.33-34.08-.86-35.29,1.62-2.43,7-8.77,7.77-11.93a18.31,18.31,0,0,0,.58-8.66"/><path class="cls-15" d="M56.68,220.32c3.32-9.67,10.4-16.73,17.42-16.73,7.06-.36,12.92,5.63,14.64,14.62.7,3.63,1.16,7.47-.53,11-1-.26-1.19-11.58-8.52-17-1.86-1.6-10.3-3.12-13.41,1.35-7.2,8.13-4.17,18.38-5,21.3-1.91,1.62-4.21-5.42-5.35-10.23C54.63,222.5,55.6,221.8,56.68,220.32Z"/><path class="cls-15" d="M121.52,222.4c-.44-.3.62-15.72,15.88-19,5-1.34,12.81-1.51,19.09,3.5,7.26,5.41,13.52,15.83,14.89,18.86,2.87,3.37,2.22,3.81.37,5.62-2.59,3.25-10.66,8.48-11.46,7.32-1.21-1.63,2.12-4.07,1.8-10.53a21.63,21.63,0,0,0-9.65-15.86c-2.22-1.48-10.24-6.18-18.53-1.68C128.33,213.21,122,222.7,121.52,222.4Z"/><line class="cls-17" x1="121.64" y1="451.4" x2="126.75" y2="453.51"/><path class="cls-15" d="M95,298.7a4.24,4.24,0,0,1-2.21-1.46,13.82,13.82,0,0,1-1.53-2.13,29.39,29.39,0,0,1-2.21-4.72,27.71,27.71,0,0,1-1.34-5,6.72,6.72,0,0,1,0-2.79,1.29,1.29,0,0,1,.62-.77l.59-.3A13.26,13.26,0,0,1,90.2,281a22.5,22.5,0,0,1,10.39-.76,37,37,0,0,1,5.11,1c.83.24,1.66.51,2.47.82.41.16.82.32,1.22.52.2.1.4.19.6.31l.31.2a.91.91,0,0,1,.38.49v0a24.83,24.83,0,0,1-.11,5.17,15.25,15.25,0,0,1-1.51,5,11.28,11.28,0,0,1-3.34,4,10.65,10.65,0,0,1-4.76,1.94.18.18,0,0,1-.19-.14.17.17,0,0,1,.14-.19,10.19,10.19,0,0,0,4.51-2,10.55,10.55,0,0,0,3.06-3.85,15.1,15.1,0,0,0,1.35-4.76,24.47,24.47,0,0,0,0-5v0c0,.16,0,.05-.06,0a1.28,1.28,0,0,0-.23-.14c-.17-.1-.36-.19-.54-.28-.38-.17-.77-.32-1.16-.46-.79-.29-1.6-.54-2.42-.77a35.25,35.25,0,0,0-5-1,21.64,21.64,0,0,0-9.94.76,11.44,11.44,0,0,0-1.14.48l-.56.28a.34.34,0,0,0-.14.22,6,6,0,0,0,0,2.32,34,34,0,0,0,3.18,9.58,14.67,14.67,0,0,0,1.34,2.13,4.11,4.11,0,0,0,1.89,1.5h0a.14.14,0,0,1,.1.18A.16.16,0,0,1,95,298.7Z"/><path class="cls-15" d="M61.67,184.4c.62-.61,1.21-1.26,1.88-1.83A17.09,17.09,0,0,1,65.7,181a15,15,0,0,1,4.92-1.94,15.67,15.67,0,0,1,5.29-.17,15.07,15.07,0,0,1,5,1.58.24.24,0,0,1,.1.32.25.25,0,0,1-.3.12h0a18.75,18.75,0,0,0-4.91-1.13,16.13,16.13,0,0,0-5,.24,15.72,15.72,0,0,0-4.7,1.71A19.08,19.08,0,0,0,64,183.11c-.7.49-1.31,1.08-2,1.6l0,0a.21.21,0,0,1-.31,0A.24.24,0,0,1,61.67,184.4Z"/><path class="cls-15" d="M127,175.74a22.79,22.79,0,0,1,3.89-2.1,25.29,25.29,0,0,1,4.26-1.23,29.58,29.58,0,0,1,8.81-.19,42.88,42.88,0,0,1,8.53,2,45.62,45.62,0,0,1,8,3.61.23.23,0,0,1,.09.33.24.24,0,0,1-.32.09h0a53.09,53.09,0,0,0-8-3.18,45.54,45.54,0,0,0-8.38-1.81,40.52,40.52,0,0,0-4.26-.22,30,30,0,0,0-4.23.39,22.62,22.62,0,0,0-7.93,2.93h0a.38.38,0,0,1-.4-.64Z"/></g></g></g></g></svg>