<svg xmlns="http://www.w3.org/2000/svg" viewBox="0 0 288.84 102.7"><defs><style>.cls-1{fill:#dabbb5;}.cls-2{fill:#fff;}.cls-3{fill:#424852;}</style></defs><g id="レイヤー_2" data-name="レイヤー 2"><g id="design"><g id="BLACK"><path class="cls-1" d="M288.59,34.19a9,9,0,0,0-1.7-7.66,9.05,9.05,0,0,0-2.28-2.05,8.43,8.43,0,0,0-.55-.78A8.93,8.93,0,0,0,277,20.28H239.77a19,19,0,0,0-6.05-8.8C229.56,6.36,222.55,3,214.62,3c-8.23,0-15.46,3.62-19.55,9.06h-2a8.9,8.9,0,0,0-1.15-.87A9,9,0,0,0,184.3,7H168.23a9.05,9.05,0,0,0-8.1,5.08H144.18a9,9,0,0,0-9,9v7H102.8a8.39,8.39,0,0,0-.65-2.63,8.38,8.38,0,0,0,.5-6.86l-1.12-3.06A8.34,8.34,0,0,0,98,11.15,8.42,8.42,0,0,0,96.1,9,8.33,8.33,0,0,0,93,5.73,8.42,8.42,0,0,0,89.4,2.47l-3-1.37A8.44,8.44,0,0,0,79.56,1,8.51,8.51,0,0,0,72.7.5L69.64,1.61A8.4,8.4,0,0,0,64.7,6.4a8.42,8.42,0,0,0-5.21,4.51l-.48,1H9a9,9,0,0,0-9,9V39.57a9,9,0,0,0,4.22,7.61,9,9,0,0,0,7.61,4.23h25.1L20.52,77A9,9,0,0,0,23.3,89.47a9,9,0,0,0,4.55,3.67l17.51,6.37a8.72,8.72,0,0,0,3.07.55,9.07,9.07,0,0,0,7.7-4.34L71.2,70.81l3,21.32a9,9,0,0,0,4.14,6.34A9,9,0,0,0,86,102.7h46.61a9,9,0,0,0,8.75-6.91,9,9,0,0,0,6,2.33h32a9.1,9.1,0,0,0,4.27-1.07l8.06-4.34a9,9,0,0,0,4.74-7.93v-.35h6.73a8.39,8.39,0,0,0,1.68-.18L206,92a9,9,0,0,0,4.14,6.37,9,9,0,0,0,7.61,4.23h12a9.13,9.13,0,0,0,3.27-.62,8.93,8.93,0,0,0,3.05.53h40.44a9,9,0,0,0,8.72-11.22l-4.06-15.94a8.92,8.92,0,0,0-2.43-4.22,9.06,9.06,0,0,0,2.11-4ZM276.32,73,280.38,89a7,7,0,0,1-6.78,8.72H233.15a6.86,6.86,0,0,1-3.07-.71,7,7,0,0,1-3.25.8h-12a7,7,0,0,1-6.93-6l-2.06-14.85a7,7,0,0,1-5.51,2.7h-8.8l.06,1.54V82a7,7,0,0,1-3.68,6.16l-8.07,4.34a7,7,0,0,1-3.31.84H144.51a7,7,0,0,1-6.88-5.75L137,91.85a7,7,0,0,1-6.93,6H83.48a7,7,0,0,1-6.93-6L71.81,58.42,51.59,91.85a7,7,0,0,1-6,3.37,6.94,6.94,0,0,1-2.4-.42L25.7,88.43a7,7,0,0,1-3.5-10.36l20.21-31.5H9a7,7,0,0,1-7-7V20.94a7,7,0,0,1,7-7H60.28l1-2.19a6.49,6.49,0,0,1,5-3.65,6.42,6.42,0,0,1,4.06-4.61l3.06-1.11A6.38,6.38,0,0,1,75.58,2h0A6.41,6.41,0,0,1,79.46,3.3a6.5,6.5,0,0,1,3.43-1,6.34,6.34,0,0,1,2.71.6l3,1.38a6.42,6.42,0,0,1,3.64,5,6.46,6.46,0,0,1,4.62,4.06l1.11,3.07A6.44,6.44,0,0,1,97,22.45a6.45,6.45,0,0,1,.39,6.14L96.74,30h40.44v-9a7,7,0,0,1,7-7H161.5A7,7,0,0,1,168.23,9H184.3A7,7,0,0,1,191,14.05h5.06C199.67,8.66,206.63,5,214.62,5c11.6,0,21,7.75,21.08,17.29H277a7,7,0,0,1,6.81,8.61l-7.82,33a7,7,0,0,1-3.49,4.54A7,7,0,0,1,276.32,73Z"/><path class="cls-2" d="M276,63.87l7.82-33A7,7,0,0,0,277,22.28H235.7c0-9.54-9.48-17.29-21.08-17.29-8,0-15,3.67-18.53,9.06H191A7,7,0,0,0,184.3,9H168.23a7,7,0,0,0-6.73,5.08H144.18a7,7,0,0,0-7,7v9H96.74l.66-1.42A6.45,6.45,0,0,0,97,22.45a6.44,6.44,0,0,0,.92-6.08L96.82,13.3A6.46,6.46,0,0,0,92.2,9.24a6.42,6.42,0,0,0-3.64-4.95l-3-1.38a6.34,6.34,0,0,0-2.71-.6,6.5,6.5,0,0,0-3.43,1A6.41,6.41,0,0,0,75.58,2h0a6.38,6.38,0,0,0-2.2.39L70.32,3.49A6.42,6.42,0,0,0,66.26,8.1a6.49,6.49,0,0,0-5,3.65l-1,2.19H9a7,7,0,0,0-7,7V39.57a7,7,0,0,0,7,7H42.41L22.2,78.07a7,7,0,0,0,3.5,10.36L43.2,94.8a6.94,6.94,0,0,0,2.4.42,7,7,0,0,0,6-3.37L71.81,58.42l4.74,33.43a7,7,0,0,0,6.93,6h46.61a7,7,0,0,0,6.93-6l.61-4.31a7,7,0,0,0,6.88,5.75h32.05a7,7,0,0,0,3.31-.84l8.07-4.34A7,7,0,0,0,191.62,82v-.82l-.06-1.54h8.8a7,7,0,0,0,5.51-2.7l2.06,14.85a7,7,0,0,0,6.93,6h12a7,7,0,0,0,3.25-.8,6.86,6.86,0,0,0,3.07.71H273.6A7,7,0,0,0,280.38,89L276.32,73a7,7,0,0,0-3.82-4.62A7,7,0,0,0,276,63.87Z"/><path class="cls-3" d="M79.84,33.83l.56,1.54a1.44,1.44,0,0,0,1.35.94,1.36,1.36,0,0,0,.48-.09l.71-.26,2.36-.85a1.44,1.44,0,0,0,.85-1.83l-.55-1.54a12.33,12.33,0,0,0,2-1.73c.18-.19.38-.37.55-.58l1.25.58H91a1.31,1.31,0,0,0,.51-.58l1.38-3a1.43,1.43,0,0,0-.69-1.89l-1.48-.7a12.22,12.22,0,0,0,.15-3.41l1.54-.56a1.45,1.45,0,0,0,.85-1.83L92.12,15a1.45,1.45,0,0,0-1.35-.94,1.36,1.36,0,0,0-.48.09l-1.54.55a12.13,12.13,0,0,0-2.3-2.51l.69-1.49a1.43,1.43,0,0,0-.7-1.89l-3-1.38a1.44,1.44,0,0,0-1.9.69l-.7,1.48a12,12,0,0,0-2.23-.21,11.46,11.46,0,0,0-1.17.06l-.57-1.54A1.43,1.43,0,0,0,75.58,7a1.67,1.67,0,0,0-.49.08L72,8.19A1.43,1.43,0,0,0,71.17,10l.56,1.55a11.88,11.88,0,0,0-2.51,2.3l-1.49-.69a1.44,1.44,0,0,0-1.9.7l0,.07-1.35,2.88a1.44,1.44,0,0,0,.69,1.9l1.48.7a12.86,12.86,0,0,0-.18,1.52,13.09,13.09,0,0,0,0,1.88l-1.53.57a1.43,1.43,0,0,0-.85,1.83l1.11,3.06a1.44,1.44,0,0,0,1.35.94,1.61,1.61,0,0,0,.48-.08l1.54-.56a12.15,12.15,0,0,0,2.3,2.51l-.68,1.49a1.48,1.48,0,0,0-.13.5,1.46,1.46,0,0,0,.82,1.4l3,1.38a1.37,1.37,0,0,0,.59.13,1.44,1.44,0,0,0,1.3-.82l.4-.83.3-.65a12.93,12.93,0,0,0,2.23.2A11.51,11.51,0,0,0,79.84,33.83ZM78.06,25a3.26,3.26,0,0,1-.84-.26,3.41,3.41,0,0,1-1.9-3.81,3.36,3.36,0,0,1,.24-.74,3.42,3.42,0,0,1,3.1-2,3.55,3.55,0,0,1,1.45.32,3.42,3.42,0,0,1-1.45,6.53A4.07,4.07,0,0,1,78.06,25ZM184.3,35.89h15.89l-.14-1.06a16,16,0,0,1-6.52-12.5c0-.43,0-.85.08-1.28H184.3V16H168.23v5.08h-24V35.89h24V40h-24V54.84h24v4.52h-24v9.71l.33,17.22h32.05L184.62,82v-.56l-.32-8.8h16.06V59.36H184.3V54.84h16.06V40H184.3ZM168.86,73.06l-10.45,6a.38.38,0,0,1-.57-.33V66.7a.38.38,0,0,1,.57-.33l10.45,6A.38.38,0,0,1,168.86,73.06ZM277,29.28l-7.82,33h-15.8l4-17H232.64V29.28H277ZM226.78,39.75l.05,0V90.78h-12l-7.21-52.09a25.08,25.08,0,0,0,7,1,24.6,24.6,0,0,0,4.11-.34,10.17,10.17,0,0,0,8.05.41Zm42.76,35,4.06,15.94H233.15V61.92H248l-1.33,12.83ZM71.72,40.38a6.22,6.22,0,0,0,2.47.59l-3.93,6.49L45.6,88.22,28.09,81.85,55.21,39.57H9V20.94H60.25a6.43,6.43,0,0,0-.86,6L60.51,30a6.45,6.45,0,0,0,4.61,4.07A6.43,6.43,0,0,0,68.77,39l.32.14ZM137.27,37h.45l-.54,3.8-7.09,50.06H83.48L77.54,49,81,43.2a7.29,7.29,0,0,0,.77-1.9,6.52,6.52,0,0,0,2.14-.38L87,39.8A6.35,6.35,0,0,0,90.33,37h46.94ZM120,53.59H93.57l3.26,23.49h19.91ZM230.21,22.33c0,.14,0,.27,0,.4a10.25,10.25,0,0,1-3.36,6.94,14.6,14.6,0,0,1-2.81,2.1,4.76,4.76,0,0,0,2.49,1.8,4.69,4.69,0,0,1-1.64,1,4.75,4.75,0,0,1-1.64.3,4.83,4.83,0,0,1-3.39-1.4,20.06,20.06,0,0,1-5.22.69,19.52,19.52,0,0,1-7.26-1.39l-.56-.21a13.79,13.79,0,0,1-6.44-5.49c-.14-.23-.27-.46-.39-.7a9.27,9.27,0,0,1-.94-4.06,9.07,9.07,0,0,1,.09-1.28,10.66,10.66,0,0,1,3.78-6.51,17.94,17.94,0,0,1,11.72-4C223.23,10.49,230.21,15.79,230.21,22.33Zm-19.92.36a1.84,1.84,0,0,0,0-.41,2.1,2.1,0,0,0-2.91-1.53,2.1,2.1,0,0,0-1.24,1.54,1.75,1.75,0,0,0,0,.4,2.1,2.1,0,0,0,1.3,1.95,2.17,2.17,0,0,0,.81.16A2.11,2.11,0,0,0,210.29,22.69Zm6.48,0a2.71,2.71,0,0,0,0-.41,2.11,2.11,0,0,0-4.15,0,1.84,1.84,0,0,0,0,.41,2.12,2.12,0,0,0,4.23,0Zm6.41,0a2.71,2.71,0,0,0,0-.41,2.11,2.11,0,0,0-4.15,0,1.84,1.84,0,0,0-.05.41,2.12,2.12,0,0,0,4.24,0Z"/></g></g></g></svg>